<svg xmlns="http://www.w3.org/2000/svg" width="54" height="54" viewBox="0 0 54 54">
  <g id="_3d" data-name="3d" transform="translate(-0.312 -0.312)">
    <rect id="Rectangle_18" data-name="Rectangle 18" width="54" height="54" transform="translate(0.312 0.312)" fill="#fff" opacity="0"/>
    <g id="_3d_1_" data-name="3d (1)" transform="translate(3.035 4.552)">
      <path id="Path_17" data-name="Path 17" d="M342.948,346.5a.948.948,0,1,0,.948.948A.949.949,0,0,0,342.948,346.5Zm0,0" transform="translate(-309.567 -313.684)" fill="#fff"/>
      <path id="Path_18" data-name="Path 18" d="M247.9,161.448a.948.948,0,1,0-.948.948A.948.948,0,0,0,247.9,161.448Zm0,0" transform="translate(-222.671 -145.327)" fill="#fff"/>
      <path id="Path_19" data-name="Path 19" d="M150.948,348.393a.948.948,0,1,0-.948-.948A.949.949,0,0,0,150.948,348.393Zm0,0" transform="translate(-135.775 -313.684)" fill="#fff"/>
      <path id="Path_20" data-name="Path 20" d="M47.992,39.715l-5.127-2.278V16.622a.953.953,0,0,0-.582-.875L25.226,8.411V1.449a.948.948,0,0,0-1.9,0V8.411L6.274,15.747a.954.954,0,0,0-.582.875V37.437L.564,39.715a.948.948,0,1,0,.77,1.733l5.311-2.36L23.9,46.511a.963.963,0,0,0,.749,0L41.91,39.089l5.311,2.36a.948.948,0,0,0,.77-1.733ZM23.33,10.476v2.353a.948.948,0,1,0,1.9,0V10.476l14.29,6.146L24.278,23.176,9.039,16.622ZM12.575,35.416a.949.949,0,0,0-1.252-.482l-3.736,1.66V18.062L23.33,24.833V44.2L9.007,38.04l3.087-1.371a.949.949,0,0,0,.482-1.252ZM25.226,44.2V24.833l15.742-6.771V36.595l-3.735-1.66a.948.948,0,0,0-.77,1.733l3.087,1.371Zm0,0" transform="translate(-0.001 -0.5)" fill="#a5a5a5"/>
    </g>
  </g>
</svg>
