<svg xmlns="http://www.w3.org/2000/svg" width="40.9" height="27.267" viewBox="0 0 40.9 27.267">
  <g id="noun_plumbing_2100549" transform="translate(-1.5 -12.2)">
    <g id="Group_5165" data-name="Group 5165" transform="translate(1.5 12.2)">
      <path id="Path_5729" data-name="Path 5729" d="M2.14,36.394a.6.6,0,0,0,.64-.64V31.978h2.3V35.69a.6.6,0,0,0,.64.64H9.181l4.48,3.008a.91.91,0,0,0,.384.128H35.231a.6.6,0,0,0,.64-.64V34.858h1.6v.9a.6.6,0,0,0,.64.64H41.76a.6.6,0,0,0,.64-.64V24.425a.6.6,0,0,0-.64-.64H38.112a.6.6,0,0,0-.64.64v.9h-1.6V22.569a.6.6,0,0,0-.64-.64H32.543l-3.968-3.456a.54.54,0,0,0-.448-.128H23.582V16.232h1.28a.6.6,0,0,0,.64-.64V12.84a.6.6,0,0,0-.64-.64H17.5a.6.6,0,0,0-.64.64v2.752a.6.6,0,0,0,.64.64h1.28v2.112h-4.1a.91.91,0,0,0-.384.128L9.181,21.929H5.724a.6.6,0,0,0-.64.64V25.9H2.78V22.121a.6.6,0,0,0-.64-.64.6.6,0,0,0-.64.64V35.754A.6.6,0,0,0,2.14,36.394ZM38.816,25.065h2.368V35.178H38.816V25.065ZM37.536,26.6v7.041h-1.6V26.6ZM18.142,13.416h6.081v1.472H18.142Zm1.92,2.816H22.3v2.112h-2.24Zm-5.185,3.392H27.871l3.968,3.392a.54.54,0,0,0,.448.128h2.3V38.187H14.237l-4.224-2.88V22.889ZM6.364,23.209H8.733V35.05H6.364Zm-1.28,3.968V30.7H2.78v-3.52Z" transform="translate(-1.5 -12.2)" fill="#a5a5a5"/>
      <path id="Path_5730" data-name="Path 5730" d="M22.176,38.029h8.129A4.333,4.333,0,0,0,34.017,40.2a4.395,4.395,0,0,0,3.84-2.3.581.581,0,0,0,0-.64.672.672,0,0,0-.576-.32h-1.92l-1.152-1.088,1.152-1.088h1.92a.764.764,0,0,0,.576-.32.581.581,0,0,0,0-.64,4.32,4.32,0,0,0-3.84-2.3,4.253,4.253,0,0,0-3.712,2.176H22.176A2.2,2.2,0,0,0,20,35.852,2.158,2.158,0,0,0,22.176,38.029Zm11.841-5.185a2.955,2.955,0,0,1,1.92.7h-.832a.581.581,0,0,0-.448.192l-1.792,1.728a.691.691,0,0,0-.192.448.581.581,0,0,0,.192.448l1.792,1.728a.581.581,0,0,0,.448.192h.832a2.955,2.955,0,0,1-1.92.7,3.06,3.06,0,0,1-3.072-3.008A3.128,3.128,0,0,1,34.017,32.844ZM22.176,35.02h7.617a3.936,3.936,0,0,0-.064.9,4.226,4.226,0,0,0,.064.9H22.176a.915.915,0,0,1-.9-.9A.875.875,0,0,1,22.176,35.02Z" transform="translate(-8.159 -19.147)" fill="#a5a5a5"/>
    </g>
  </g>
</svg>
