<svg xmlns="http://www.w3.org/2000/svg" width="37.978" height="31.799" viewBox="0 0 37.978 31.799">
  <g id="noun_landscape_122903" transform="translate(0 -3.905)">
    <g id="Group_5158" data-name="Group 5158" transform="translate(0 3.905)">
      <path id="Path_5690" data-name="Path 5690" d="M31.707,35.7H6.27A6.277,6.277,0,0,1,0,29.434V10.175A6.277,6.277,0,0,1,6.27,3.9H31.707a6.277,6.277,0,0,1,6.27,6.27V29.434A6.277,6.277,0,0,1,31.707,35.7ZM6.27,5.487a4.693,4.693,0,0,0-4.688,4.688V29.434A4.693,4.693,0,0,0,6.27,34.122H31.707A4.693,4.693,0,0,0,36.4,29.434V10.175a4.693,4.693,0,0,0-4.688-4.688H6.27Z" transform="translate(0 -3.905)" fill="#a5a5a5"/>
      <path id="Path_5691" data-name="Path 5691" d="M37.187,31.486a.788.788,0,0,1-.612-.29l-6.9-8.433-7.734,7.391a.792.792,0,0,1-1.173-.088L12.4,19.264,1.347,30.146A.792.792,0,0,1,.236,29.018L11.927,17.511a.779.779,0,0,1,.608-.225.79.79,0,0,1,.572.3L21.478,28.4,29.2,21.029a.823.823,0,0,1,.594-.218.79.79,0,0,1,.564.289L37.8,30.193a.792.792,0,0,1-.611,1.293Z" transform="translate(0 -6.698)" fill="#a5a5a5"/>
    </g>
  </g>
</svg>
