<svg xmlns="http://www.w3.org/2000/svg" width="50.748" height="35.947" viewBox="0 0 50.748 35.947">
  <g id="noun_tiles_393965" transform="translate(0 -3.5)">
    <path id="Path_5693" data-name="Path 5693" d="M50.234,22.681,35.765,14,37.57,12.85a1.059,1.059,0,0,0,0-1.785l-11.63-7.4a1.06,1.06,0,0,0-1.135,0l-11.63,7.4a1.059,1.059,0,0,0,0,1.785L14.981,14,.514,22.681a1.057,1.057,0,0,0-.006,1.81l24.317,14.8a1.056,1.056,0,0,0,1.1,0l24.317-14.8a1.057,1.057,0,0,0-.006-1.81ZM25.374,5.811l9.661,6.147L25.374,18.1l-9.661-6.147Zm-.569,14.44a1.064,1.064,0,0,0,.569.165,1.052,1.052,0,0,0,.567-.165l7.83-4.984,1.393.837-9.79,6.231L15.582,16.1l1.393-.835ZM13.556,17.32l9.849,6.267-9.93,6.318L3.1,23.59ZM25.374,37.15l-9.885-6.018,9.885-6.291,9.885,6.291Zm11.9-7.242-9.93-6.32,9.849-6.267,10.454,6.272Z" transform="translate(0 0)" fill="#a5a5a5"/>
  </g>
</svg>
