<svg xmlns="http://www.w3.org/2000/svg" width="36.069" height="36.181" viewBox="0 0 36.069 36.181">
  <g id="noun_Truck_2738828" transform="translate(-3 -2.47)">
    <path id="Path_5731" data-name="Path 5731" d="M31.668,27H10.587a.622.622,0,0,1-.622-.622V20.212a.622.622,0,0,1,.622-.622H31.668a.622.622,0,0,1,.622.622v6.181A.622.622,0,0,1,31.668,27Zm-20.46-1.244H31.046V20.834H11.209Zm3.29-.435a2.046,2.046,0,1,1,2.04-2.04,2.046,2.046,0,0,1-2.04,2.04Zm0-2.842a.8.8,0,1,0,.732.8.8.8,0,0,0-.732-.8Zm13.3,2.842a2.046,2.046,0,1,1,2.04-2.04,2.046,2.046,0,0,1-2.04,2.04Zm0-2.842a.8.8,0,1,0,.732.8.8.8,0,0,0-.732-.8Zm-3.4-.131a.622.622,0,0,0-.622-.622H18.491a.622.622,0,1,0,0,1.244h5.286A.622.622,0,0,0,24.4,22.345Zm0,1.866a.622.622,0,0,0-.622-.622H18.491a.622.622,0,1,0,0,1.244h5.286A.622.622,0,0,0,24.4,24.211Zm6.144-14.048H11.706a.622.622,0,0,0-.622.435L8.852,17.662a.624.624,0,0,0,.6.808H33.012a.622.622,0,0,0,.535-.939l-2.419-6.953a.622.622,0,0,0-.585-.417ZM12.129,11.406h8.358v5.821H10.295Zm9.6,5.821V11.406H30.1l2.021,5.821ZM38.447,2.47H3.622A.622.622,0,0,0,3,3.092V27.053a.622.622,0,0,0,.622.622H6.109v4.266a.622.622,0,0,0,.622.622H8.87v4.21a1.866,1.866,0,0,0,1.866,1.866H12.95a1.866,1.866,0,0,0,1.866-1.866v-4.2H26.843v4.21a1.866,1.866,0,0,0,1.866,1.866h2.2a1.866,1.866,0,0,0,1.866-1.866v-4.21h2.718a.622.622,0,0,0,.622-.622V27.674h2.338a.622.622,0,0,0,.622-.622V3.092A.622.622,0,0,0,38.447,2.47ZM34.865,28.24H7.353V18.5l2.91-8.961H31.954l2.91,8.961ZM13.572,36.785a.622.622,0,0,1-.622.622H10.73a.622.622,0,0,1-.622-.622v-4.21h3.464Zm17.972,0a.622.622,0,0,1-.622.622H28.708a.622.622,0,0,1-.622-.622v-4.21h3.439Zm3.339-5.454H7.353V29.465H34.865Zm2.941-4.9H36.108V18.4a.659.659,0,0,0-.031-.193L33,8.726a.622.622,0,0,0-.622-.429H9.841a.622.622,0,0,0-.591.429L6.109,18.21a.659.659,0,0,0,0,.193v8.028H4.244V3.714H37.825Z" transform="translate(0 0)" fill="#a5a5a5"/>
  </g>
</svg>
