<svg xmlns="http://www.w3.org/2000/svg" width="27.14" height="39.366" viewBox="0 0 27.14 39.366">
  <g id="noun_electrician_1053830" transform="translate(-23.7 -10.5)">
    <path id="Path_5742" data-name="Path 5742" d="M59.562,74.59l-1.623-.761,1.674-.964a.522.522,0,0,0-.507-.913l-2.486,1.42a.533.533,0,0,0-.254.457.487.487,0,0,0,.3.457l1.674.812-1.776,1.167a.5.5,0,0,0-.152.71.461.461,0,0,0,.406.2.721.721,0,0,0,.3-.1L59.664,75.4a.41.41,0,0,0,.2-.457C59.816,74.743,59.714,74.692,59.562,74.59Z" transform="translate(-16.078 -30.254)" fill="#a5a5a5"/>
    <path id="Path_5743" data-name="Path 5743" d="M38.411,10.5H35.875a1.148,1.148,0,0,0-1.167,1.167v.406a8.691,8.691,0,0,0-6.341,8.117,1.528,1.528,0,0,0-.862,1.37v1.725a1.581,1.581,0,0,0,1.573,1.573h.659a7.89,7.89,0,0,0,3.45,6.443v2.334a8.33,8.33,0,0,0-5.073,2.283C25.273,38.553,23.8,43.068,23.7,49.358a.52.52,0,0,0,.507.507H50.536c.051,0,.051-.051.1-.051s.051-.051.1-.051a.177.177,0,0,0,.051-.1c0-.051.051-.051.051-.1v-.2h0c-.1-6.189-1.573-10.7-4.413-13.342A8.292,8.292,0,0,0,40.9,33.632V31.3a7.89,7.89,0,0,0,3.45-6.443h.71a1.581,1.581,0,0,0,1.573-1.573V21.559a1.528,1.528,0,0,0-.862-1.37,8.27,8.27,0,0,0-6.189-8.066v-.457A1.148,1.148,0,0,0,38.411,10.5Zm-2.536,1.015h2.536a.135.135,0,0,1,.152.152v8.32h-2.79v-8.32C35.723,11.565,35.824,11.515,35.875,11.515Zm-1.167,1.623v6.848H29.432A7.589,7.589,0,0,1,34.708,13.138ZM46.325,48.851H37.651V41.14a1.438,1.438,0,0,1,.862-1.268,5.785,5.785,0,0,0,3.145-4.921V34.7a7.232,7.232,0,0,1,1.826.507c-1.268,2.435.609,5.58,2.08,6.646a1.812,1.812,0,0,1,.812,1.37v5.631Zm-15.067-13.7h0a4.109,4.109,0,0,1,1.37-.406v.2a5.785,5.785,0,0,0,3.145,4.921,1.382,1.382,0,0,1,.862,1.268v7.711H28.418V43.22a1.735,1.735,0,0,1,.812-1.37C30.65,40.735,32.578,37.589,31.259,35.154Zm9.334.254a4.9,4.9,0,0,1-2.486,3.5,2.03,2.03,0,0,0-.964.761,2.919,2.919,0,0,0-.964-.761,4.716,4.716,0,0,1-2.486-3.45l.152.1a6.392,6.392,0,0,0,3.3.964,5.948,5.948,0,0,0,3.3-.964ZM28.874,36.676A9.685,9.685,0,0,1,30.4,35.56v.051c1.015,1.877-.659,4.515-1.776,5.377A2.873,2.873,0,0,0,27.4,43.22v5.631H24.816C24.968,43.17,26.338,39.06,28.874,36.676ZM49.927,48.851H47.34V43.22a2.709,2.709,0,0,0-1.217-2.181c-1.116-.862-2.79-3.5-1.776-5.377h0a9.684,9.684,0,0,1,1.522,1.116C48.405,39.111,49.775,43.22,49.927,48.851ZM39.984,34.6l-.1.051a5.183,5.183,0,0,1-5.529,0l-.1-.051V31.857a6.708,6.708,0,0,0,2.892.609,6.871,6.871,0,0,0,2.892-.609V34.6ZM37.143,31.5A6.579,6.579,0,0,1,30.8,24.856H43.484C43.332,28.509,40.542,31.5,37.143,31.5Zm8.624-8.218a.563.563,0,0,1-.558.558H29.128a.563.563,0,0,1-.558-.558V21.559A.563.563,0,0,1,29.128,21H45.209a.563.563,0,0,1,.558.558Zm-.862-3.3H39.578v-6.8A7.573,7.573,0,0,1,44.9,19.986Z" fill="#a5a5a5"/>
  </g>
</svg>
