<svg xmlns="http://www.w3.org/2000/svg" width="40.122" height="40.122" viewBox="0 0 40.122 40.122">
  <g id="noun_maintenance_1147604" transform="translate(-6 -6)">
    <g id="Group_5155" data-name="Group 5155" transform="translate(6 6)">
      <path id="Path_5686" data-name="Path 5686" d="M22.328,958.363a.912.912,0,0,0-.826.912v3.9a16.122,16.122,0,0,0-3.021,1.353l-2.721-2.721a.912.912,0,0,0-1.282,0l-5.015,5.015a.912.912,0,0,0,0,1.3l2.707,2.707a15.986,15.986,0,0,0-1.339,3.035H6.912a.912.912,0,0,0-.912.912v7.295a.912.912,0,0,0,.912.912H10.83A16.071,16.071,0,0,0,12.169,986L9.462,988.71a.912.912,0,0,0,0,1.3l5.015,5.015a.912.912,0,0,0,1.282,0l2.721-2.721A16.1,16.1,0,0,0,21.5,993.64v3.932a.912.912,0,0,0,.912.912h7.295a.912.912,0,0,0,.912-.912V993.64a16.111,16.111,0,0,0,3.021-1.339l2.721,2.721a.912.912,0,0,0,1.282,0l5.015-5.015a.912.912,0,0,0,0-1.3L39.953,986a16.073,16.073,0,0,0,1.339-3.02H45.21a.912.912,0,0,0,.912-.912v-7.295a.912.912,0,0,0-.912-.912H41.292a15.982,15.982,0,0,0-1.339-3.035l2.707-2.707a.912.912,0,0,0,0-1.3l-5.015-5.015a.912.912,0,0,0-1.282,0l-2.721,2.721a16.13,16.13,0,0,0-3.021-1.354v-3.9a.912.912,0,0,0-.912-.912H22.413q-.043,0-.085,0Zm1,1.824H28.8v3.633a.912.912,0,0,0,.7.883,14.5,14.5,0,0,1,3.847,1.724.912.912,0,0,0,1.111-.128l2.55-2.55,3.733,3.733-2.55,2.536a.912.912,0,0,0-.142,1.126,14.481,14.481,0,0,1,1.724,3.847.912.912,0,0,0,.883.7H44.3v5.471H40.651a.912.912,0,0,0-.883.684,14.567,14.567,0,0,1-1.724,3.861.912.912,0,0,0,.142,1.111l2.55,2.55L37,993.084l-2.55-2.55a.912.912,0,0,0-1.111-.128,14.435,14.435,0,0,1-3.847,1.71.912.912,0,0,0-.7.9v3.647H23.325v-3.647a.912.912,0,0,0-.7-.9,14.432,14.432,0,0,1-3.847-1.71.912.912,0,0,0-1.111.128l-2.55,2.552-3.733-3.719,2.55-2.55a.912.912,0,0,0,.142-1.111,14.57,14.57,0,0,1-1.724-3.861.912.912,0,0,0-.883-.684H7.824v-5.471h3.647a.912.912,0,0,0,.883-.7,14.482,14.482,0,0,1,1.724-3.847.912.912,0,0,0-.142-1.126l-2.55-2.536,3.733-3.733,2.55,2.55a.912.912,0,0,0,1.111.128,14.493,14.493,0,0,1,3.847-1.724.912.912,0,0,0,.7-.884v-3.633Zm2.736,6.839a11.4,11.4,0,1,0,11.4,11.4A11.412,11.412,0,0,0,26.061,967.026Zm0,1.824a9.57,9.57,0,0,1,3.192,18.593v-3.961A6.778,6.778,0,0,0,28.7,971.2a.912.912,0,0,0-1.268.841v5.029l-1.368,1.1-1.368-1.1v-5.029a.9.9,0,0,0-1.268-.841,6.776,6.776,0,0,0-.556,12.28v3.961a9.57,9.57,0,0,1,3.192-18.593Zm-3.192,4.787v3.875a.912.912,0,0,0,.342.712l2.28,1.824a.912.912,0,0,0,1.14,0l2.28-1.824a.912.912,0,0,0,.342-.712v-3.875a5.02,5.02,0,0,1-1.268,8.506.912.912,0,0,0-.556.839V987.9a9.441,9.441,0,0,1-2.736,0v-4.915a.912.912,0,0,0-.556-.841,5.02,5.02,0,0,1-1.268-8.506Z" transform="translate(-6 -958.362)" fill="#a5a5a5"/>
    </g>
  </g>
</svg>
