<svg xmlns="http://www.w3.org/2000/svg" width="41.503" height="29.83" viewBox="0 0 41.503 29.83">
  <g id="noun_cupboard_1267185" transform="translate(0 -5)">
    <g id="_10-Drawer" data-name="10-Drawer" transform="translate(0 5)">
      <path id="Path_5692" data-name="Path 5692" d="M37.612,5H3.891A3.891,3.891,0,0,0,0,8.891V27.048a3.891,3.891,0,0,0,2.594,3.657V34.83H5.188V30.939H36.315V34.83h2.594V30.706A3.891,3.891,0,0,0,41.5,27.048V8.891A3.891,3.891,0,0,0,37.612,5ZM19.454,28.345H3.891a1.3,1.3,0,0,1-1.3-1.3V8.891a1.3,1.3,0,0,1,1.3-1.3H19.454Zm19.454-1.3a1.3,1.3,0,0,1-1.3,1.3H22.048V7.594H37.612a1.3,1.3,0,0,1,1.3,1.3Z" transform="translate(0 -5)" fill="#a5a5a5"/>
      <rect id="Rectangle_2419" data-name="Rectangle 2419" width="3" height="3" transform="translate(25.751 11.415)" fill="#a5a5a5"/>
      <rect id="Rectangle_2420" data-name="Rectangle 2420" width="3" height="3" transform="translate(12.751 11.415)" fill="#a5a5a5"/>
    </g>
  </g>
</svg>
