<svg xmlns="http://www.w3.org/2000/svg" width="32.569" height="32.569" viewBox="0 0 32.569 32.569">
  <g id="noun_paving_1329240" transform="translate(-1.716 -1.716)">
    <g id="Group_5163" data-name="Group 5163" transform="translate(1.716 1.716)">
      <g id="Group_5162" data-name="Group 5162">
        <path id="Path_5694" data-name="Path 5694" d="M30.941,0H1.628A1.63,1.63,0,0,0,0,1.628V30.941a1.63,1.63,0,0,0,1.628,1.628H30.941a1.63,1.63,0,0,0,1.628-1.628V1.628A1.63,1.63,0,0,0,30.941,0ZM15.2,27.684H14.113a.543.543,0,0,1-.543-.543V26.055a.543.543,0,0,1,.543-.543h4.343a.543.543,0,0,1,.543.543v1.086a.543.543,0,0,1-.543.543ZM11.942,13.028a.543.543,0,0,1,.543.543v2.714a.543.543,0,0,1-.543.543H7.057v-3.8Zm13.571,2.714H20.627a.543.543,0,0,1-.543-.543V13.571a.543.543,0,0,1,.543-.543h4.885Zm0,5.428H20.627a.543.543,0,0,1-.543-.543V17.37a.543.543,0,0,1,.543-.543h4.885ZM19,13.571V19a.543.543,0,0,1-.543.543H14.113A.543.543,0,0,1,13.571,19V13.571a.543.543,0,0,1,.543-.543h4.343a.543.543,0,0,1,.543.543ZM7.057,17.913h4.885a.543.543,0,0,1,.543.543v3.8a.543.543,0,0,1-.543.543H7.057Zm6.514,5.971V21.17a.543.543,0,0,1,.543-.543h4.343A.543.543,0,0,1,19,21.17v2.714a.543.543,0,0,1-.543.543H14.113a.543.543,0,0,1-.543-.543Zm6.514,0V22.8a.543.543,0,0,1,.543-.543h4.885v2.171H20.627a.543.543,0,0,1-.543-.543Zm5.428-11.942H20.627a.543.543,0,0,1-.543-.543V7.057a.543.543,0,0,1,.543-.543h4.885ZM18.456,6.514A.543.543,0,0,1,19,7.057V11.4a.543.543,0,0,1-.543.543H11.942A.543.543,0,0,1,11.4,11.4V7.057a.543.543,0,0,1,.543-.543Zm-8.142.543V11.4a.543.543,0,0,1-.543.543H7.057V6.514H9.771A.543.543,0,0,1,10.314,7.057ZM7.057,23.884h4.885a.543.543,0,0,1,.543.543v2.714a.543.543,0,0,1-.543.543H7.057Zm13.571,3.8a.543.543,0,0,1-.543-.543V26.055a.543.543,0,0,1,.543-.543h4.885v2.171ZM25.513,5.428H19.542A.543.543,0,0,1,19,4.885v-3.8h6.514Zm-7.6-.543a.543.543,0,0,1-.543.543h-3.8a.543.543,0,0,1-.543-.543v-3.8h4.885Zm-5.971-3.8v3.8a.543.543,0,0,1-.543.543H7.057V1.086ZM1.086,30.941V1.628a.543.543,0,0,1,.543-.543H5.971v30.4H1.628A.543.543,0,0,1,1.086,30.941ZM7.057,28.77h3.257a.543.543,0,0,1,.543.543v2.171h-3.8Zm4.885.543a.543.543,0,0,1,.543-.543H15.2a.543.543,0,0,1,.543.543v2.171h-3.8Zm4.885,0a.543.543,0,0,1,.543-.543H19a.543.543,0,0,1,.543.543v2.171H16.827Zm3.8,2.171V29.312a.543.543,0,0,1,.543-.543h4.343v2.714Zm10.856-.543a.543.543,0,0,1-.543.543H26.6V1.086h4.343a.543.543,0,0,1,.543.543Z" transform="translate(0 0)" fill="#a5a5a5"/>
        <path id="Path_5695" data-name="Path 5695" d="M4.928,5.16a.564.564,0,0,0-.179-.114.553.553,0,0,0-.592.114.623.623,0,0,0-.114.179.511.511,0,0,0,0,.412.63.63,0,0,0,.114.179.623.623,0,0,0,.179.114.537.537,0,0,0,.592-.114.63.63,0,0,0,.114-.179.511.511,0,0,0,0-.412.623.623,0,0,0-.114-.179Z" transform="translate(-1.829 -2.288)" fill="#a5a5a5"/>
        <path id="Path_5696" data-name="Path 5696" d="M7.543,9.083a.543.543,0,0,0,.206-.043.63.63,0,0,0,.179-.114.545.545,0,1,0-.771-.771.559.559,0,0,0-.114.179.538.538,0,0,0,.5.749Z" transform="translate(-3.2 -3.655)" fill="#a5a5a5"/>
        <path id="Path_5697" data-name="Path 5697" d="M4.928,11.163a.568.568,0,0,0-.771,0,.622.622,0,0,0-.114.179.511.511,0,0,0,0,.412.63.63,0,0,0,.114.179.623.623,0,0,0,.179.114.537.537,0,0,0,.706-.706.623.623,0,0,0-.114-.179Z" transform="translate(-1.829 -5.035)" fill="#a5a5a5"/>
        <path id="Path_5698" data-name="Path 5698" d="M7.749,14.044a.516.516,0,0,0-.412,0,.489.489,0,0,0-.293.293.537.537,0,0,0,.114.592.56.56,0,0,0,.385.157.542.542,0,0,0,.206-.043.631.631,0,0,0,.179-.114.539.539,0,0,0,.157-.385.571.571,0,0,0-.157-.385A.631.631,0,0,0,7.749,14.044Z" transform="translate(-3.2 -6.401)" fill="#a5a5a5"/>
        <path id="Path_5699" data-name="Path 5699" d="M4.157,17.163A.569.569,0,0,0,4,17.548a.537.537,0,0,0,.157.385.623.623,0,0,0,.179.114.537.537,0,0,0,.749-.5.543.543,0,0,0-.928-.385Z" transform="translate(-1.829 -7.778)" fill="#a5a5a5"/>
        <path id="Path_5700" data-name="Path 5700" d="M7.749,20.044a.516.516,0,0,0-.412,0,.489.489,0,0,0-.293.293.511.511,0,0,0,0,.412.63.63,0,0,0,.114.179.543.543,0,0,0,.928-.385.571.571,0,0,0-.157-.385A.631.631,0,0,0,7.749,20.044Z" transform="translate(-3.2 -9.144)" fill="#a5a5a5"/>
        <path id="Path_5701" data-name="Path 5701" d="M4.928,23.16a.629.629,0,0,0-.179-.114.54.54,0,0,0-.412,0,.489.489,0,0,0-.293.293.543.543,0,1,0,1,0,.559.559,0,0,0-.114-.179Z" transform="translate(-1.829 -10.517)" fill="#a5a5a5"/>
        <path id="Path_5702" data-name="Path 5702" d="M7.157,26.155A.569.569,0,0,0,7,26.54a.543.543,0,1,0,.157-.385Z" transform="translate(-3.2 -11.884)" fill="#a5a5a5"/>
        <path id="Path_5703" data-name="Path 5703" d="M4.157,29.163A.545.545,0,0,0,4,29.548a.537.537,0,0,0,.157.385.781.781,0,0,0,.179.119.542.542,0,0,0,.749-.5.56.56,0,0,0-.157-.385A.568.568,0,0,0,4.157,29.163Z" transform="translate(-1.829 -13.264)" fill="#a5a5a5"/>
        <path id="Path_5704" data-name="Path 5704" d="M7.847,32.092a.4.4,0,0,0-.1-.049.337.337,0,0,0-.1-.033.542.542,0,0,0-.488.147.558.558,0,0,0-.114.179.511.511,0,0,0,0,.412.629.629,0,0,0,.114.179.55.55,0,0,0,.771,0,.629.629,0,0,0,.114-.179.458.458,0,0,0,.043-.206.571.571,0,0,0-.157-.385.877.877,0,0,0-.082-.065Z" transform="translate(-3.2 -14.63)" fill="#a5a5a5"/>
        <path id="Path_5705" data-name="Path 5705" d="M4.923,35.157a.338.338,0,0,0-.082-.065.3.3,0,0,0-.092-.049.338.338,0,0,0-.1-.033.542.542,0,0,0-.488.147.622.622,0,0,0-.114.179.511.511,0,0,0,0,.412.629.629,0,0,0,.114.179.537.537,0,0,0,.385.157.519.519,0,0,0,.38-.157.545.545,0,0,0,0-.771Z" transform="translate(-1.829 -16.001)" fill="#a5a5a5"/>
        <path id="Path_5706" data-name="Path 5706" d="M7.157,38.155A.569.569,0,0,0,7,38.54a.537.537,0,0,0,.157.385.623.623,0,0,0,.179.114.511.511,0,0,0,.412,0,.63.63,0,0,0,.179-.114.545.545,0,1,0-.771-.771Z" transform="translate(-3.2 -17.37)" fill="#a5a5a5"/>
        <path id="Path_5707" data-name="Path 5707" d="M4.157,41.163A.569.569,0,0,0,4,41.548a.537.537,0,0,0,.749.5.631.631,0,0,0,.179-.114.539.539,0,0,0,.157-.385.543.543,0,0,0-.928-.385Z" transform="translate(-1.829 -18.75)" fill="#a5a5a5"/>
        <path id="Path_5708" data-name="Path 5708" d="M7.157,44.155a.558.558,0,0,0-.114.179.511.511,0,0,0,0,.412.629.629,0,0,0,.114.179.55.55,0,0,0,.771,0,.629.629,0,0,0,.114-.179.458.458,0,0,0,.043-.206.543.543,0,0,0-.928-.385Z" transform="translate(-3.2 -20.113)" fill="#a5a5a5"/>
        <path id="Path_5709" data-name="Path 5709" d="M4.928,47.163a.568.568,0,0,0-.771,0,.558.558,0,0,0-.114.179.511.511,0,0,0,0,.412.629.629,0,0,0,.114.179.55.55,0,0,0,.771,0,.629.629,0,0,0,.114-.179.511.511,0,0,0,0-.412.558.558,0,0,0-.114-.179Z" transform="translate(-1.829 -21.493)" fill="#a5a5a5"/>
        <path id="Path_5710" data-name="Path 5710" d="M7.928,50.163a.568.568,0,0,0-.771,0,.558.558,0,0,0-.114.179A.542.542,0,0,0,7,50.549a.452.452,0,0,0,.043.206.631.631,0,0,0,.114.179.782.782,0,0,0,.179.119.558.558,0,0,0,.592-.119.631.631,0,0,0,.114-.179.511.511,0,0,0,0-.412.623.623,0,0,0-.114-.179Z" transform="translate(-3.2 -22.865)" fill="#a5a5a5"/>
        <path id="Path_5711" data-name="Path 5711" d="M4.841,53.093a.3.3,0,0,0-.092-.049.337.337,0,0,0-.1-.033.557.557,0,0,0-.488.147A.569.569,0,0,0,4,53.544a.543.543,0,0,0,1.086,0,.571.571,0,0,0-.157-.385.533.533,0,0,0-.087-.065Z" transform="translate(-1.829 -24.231)" fill="#a5a5a5"/>
        <path id="Path_5712" data-name="Path 5712" d="M51.337,5.044a.623.623,0,0,0-.179.114.56.56,0,0,0-.114.179A.543.543,0,0,0,51,5.544a.537.537,0,0,0,.157.385.622.622,0,0,0,.179.114.537.537,0,0,0,.749-.5.571.571,0,0,0-.157-.385.544.544,0,0,0-.592-.114Z" transform="translate(-23.316 -2.287)" fill="#a5a5a5"/>
        <path id="Path_5713" data-name="Path 5713" d="M54.841,8.092a.3.3,0,0,0-.092-.049.337.337,0,0,0-.1-.033.542.542,0,0,0-.488.147A.569.569,0,0,0,54,8.543a.537.537,0,0,0,.749.5.63.63,0,0,0,.179-.114.539.539,0,0,0,.157-.385.571.571,0,0,0-.157-.385.532.532,0,0,0-.087-.065Z" transform="translate(-24.688 -3.657)" fill="#a5a5a5"/>
        <path id="Path_5714" data-name="Path 5714" d="M51.337,11.046a.558.558,0,0,0-.179.114.569.569,0,0,0-.157.385.542.542,0,0,0,.043.206.63.63,0,0,0,.114.179.623.623,0,0,0,.179.114.537.537,0,0,0,.592-.114.63.63,0,0,0,.114-.179.458.458,0,0,0,.043-.206.571.571,0,0,0-.157-.385.554.554,0,0,0-.592-.114Z" transform="translate(-23.316 -5.031)" fill="#a5a5a5"/>
        <path id="Path_5715" data-name="Path 5715" d="M54.841,14.093a.3.3,0,0,0-.092-.049.336.336,0,0,0-.1-.033.547.547,0,0,0-.488.147.569.569,0,0,0-.157.385.537.537,0,0,0,.038.206.814.814,0,0,0,.12.179.622.622,0,0,0,.179.114.537.537,0,0,0,.592-.114.63.63,0,0,0,.114-.179.543.543,0,0,0,.043-.206.571.571,0,0,0-.157-.385C54.9,14.136,54.874,14.114,54.841,14.093Z" transform="translate(-24.688 -6.401)" fill="#a5a5a5"/>
        <path id="Path_5716" data-name="Path 5716" d="M51.847,17.092a.4.4,0,0,0-.1-.049.36.36,0,0,0-.1-.033.518.518,0,0,0-.315.033.623.623,0,0,0-.179.114.569.569,0,0,0-.157.385.542.542,0,0,0,.043.206.63.63,0,0,0,.114.179.624.624,0,0,0,.179.114.537.537,0,0,0,.592-.114.63.63,0,0,0,.114-.179.458.458,0,0,0,.043-.206.571.571,0,0,0-.157-.385Z" transform="translate(-23.316 -7.772)" fill="#a5a5a5"/>
        <path id="Path_5717" data-name="Path 5717" d="M54.928,20.157c-.027-.022-.055-.043-.087-.065a.3.3,0,0,0-.092-.049.338.338,0,0,0-.1-.033.542.542,0,0,0-.488.147.622.622,0,0,0-.114.179.451.451,0,0,0-.043.206.537.537,0,0,0,.038.206.814.814,0,0,0,.12.179.55.55,0,0,0,.771,0,.63.63,0,0,0,.114-.179.511.511,0,0,0,0-.412.622.622,0,0,0-.114-.179Z" transform="translate(-24.687 -9.144)" fill="#a5a5a5"/>
        <path id="Path_5718" data-name="Path 5718" d="M51.928,23.158a.544.544,0,0,0-.592-.114.489.489,0,0,0-.293.293.537.537,0,0,0,.114.592.781.781,0,0,0,.179.119.542.542,0,0,0,.749-.5.458.458,0,0,0-.043-.206.622.622,0,0,0-.114-.179Z" transform="translate(-23.316 -10.516)" fill="#a5a5a5"/>
        <path id="Path_5719" data-name="Path 5719" d="M54.928,26.157a.528.528,0,0,0-.087-.065.3.3,0,0,0-.092-.049.338.338,0,0,0-.1-.033.542.542,0,0,0-.488.147.558.558,0,0,0-.114.179.451.451,0,0,0-.043.206.548.548,0,0,0,.749.5.793.793,0,0,0,.179-.119.537.537,0,0,0,.114-.592A.558.558,0,0,0,54.928,26.157Z" transform="translate(-24.687 -11.887)" fill="#a5a5a5"/>
        <path id="Path_5720" data-name="Path 5720" d="M51.337,29.046a.558.558,0,0,0-.179.114.569.569,0,0,0-.157.385.537.537,0,0,0,.157.385.622.622,0,0,0,.179.114.458.458,0,0,0,.206.043.539.539,0,0,0,.385-.157.63.63,0,0,0,.114-.179.458.458,0,0,0,.043-.206.571.571,0,0,0-.157-.385.554.554,0,0,0-.592-.114Z" transform="translate(-23.316 -13.261)" fill="#a5a5a5"/>
        <path id="Path_5721" data-name="Path 5721" d="M54.928,32.158a.527.527,0,0,0-.087-.065.3.3,0,0,0-.092-.049.338.338,0,0,0-.1-.033.546.546,0,0,0-.488.147.558.558,0,0,0-.114.179.451.451,0,0,0-.043.206.537.537,0,0,0,.038.206.814.814,0,0,0,.12.179.537.537,0,0,0,.592.114.489.489,0,0,0,.293-.293.511.511,0,0,0,0-.412A.557.557,0,0,0,54.928,32.158Z" transform="translate(-24.687 -14.63)" fill="#a5a5a5"/>
        <path id="Path_5722" data-name="Path 5722" d="M51.337,35.044a.558.558,0,0,0-.179.114.569.569,0,0,0-.157.385.542.542,0,0,0,.043.206.63.63,0,0,0,.114.179.623.623,0,0,0,.179.114.537.537,0,0,0,.592-.114.63.63,0,0,0,.114-.179.458.458,0,0,0,.043-.206.571.571,0,0,0-.157-.385A.544.544,0,0,0,51.337,35.044Z" transform="translate(-23.316 -16.002)" fill="#a5a5a5"/>
        <path id="Path_5723" data-name="Path 5723" d="M54.928,38.158c-.027-.022-.055-.043-.087-.065a.3.3,0,0,0-.092-.049.338.338,0,0,0-.1-.033.557.557,0,0,0-.488.147.622.622,0,0,0-.114.179.451.451,0,0,0-.043.206.537.537,0,0,0,.038.206.814.814,0,0,0,.12.179.55.55,0,0,0,.771,0,.63.63,0,0,0,.114-.179.511.511,0,0,0,0-.412.621.621,0,0,0-.114-.179Z" transform="translate(-24.687 -17.374)" fill="#a5a5a5"/>
        <path id="Path_5724" data-name="Path 5724" d="M51.928,41.161a.561.561,0,0,0-.771,0,.622.622,0,0,0-.114.179.537.537,0,0,0,.114.592.622.622,0,0,0,.179.114.511.511,0,0,0,.412,0,.628.628,0,0,0,.179-.114.539.539,0,0,0,.157-.385.458.458,0,0,0-.043-.206.622.622,0,0,0-.114-.179Z" transform="translate(-23.316 -18.748)" fill="#a5a5a5"/>
        <path id="Path_5725" data-name="Path 5725" d="M54.928,44.157a.528.528,0,0,0-.087-.065.3.3,0,0,0-.092-.049.338.338,0,0,0-.1-.033.542.542,0,0,0-.488.147.558.558,0,0,0-.114.179.451.451,0,0,0-.043.206.537.537,0,0,0,.157.385.56.56,0,0,0,.385.157.542.542,0,0,0,.206-.043.63.63,0,0,0,.179-.114.537.537,0,0,0,.114-.592A.559.559,0,0,0,54.928,44.157Z" transform="translate(-24.687 -20.116)" fill="#a5a5a5"/>
        <path id="Path_5726" data-name="Path 5726" d="M52.042,47.34a.424.424,0,0,0-.049-.1l-.065-.081a.561.561,0,0,0-.771,0l-.065.081a.4.4,0,0,0-.049.1.333.333,0,0,0-.033.1.682.682,0,0,0-.011.1.537.537,0,0,0,.157.385.622.622,0,0,0,.179.114.537.537,0,0,0,.749-.5.624.624,0,0,0-.011-.1A.319.319,0,0,0,52.042,47.34Z" transform="translate(-23.316 -21.491)" fill="#a5a5a5"/>
        <path id="Path_5727" data-name="Path 5727" d="M55.042,50.337a.424.424,0,0,0-.049-.1l-.065-.081a.528.528,0,0,0-.087-.065.3.3,0,0,0-.092-.049.338.338,0,0,0-.1-.033.542.542,0,0,0-.488.147.873.873,0,0,0-.065.081.4.4,0,0,0-.049.1.354.354,0,0,0-.033.1.752.752,0,0,0-.011.109.537.537,0,0,0,.038.206.677.677,0,0,0,.12.174.522.522,0,0,0,.385.163.542.542,0,0,0,.206-.043.549.549,0,0,0,.179-.119.565.565,0,0,0,.157-.38.688.688,0,0,0-.011-.109.335.335,0,0,0-.032-.1Z" transform="translate(-24.688 -22.859)" fill="#a5a5a5"/>
        <path id="Path_5728" data-name="Path 5728" d="M51.928,53.158a.544.544,0,0,0-.592-.114.622.622,0,0,0-.179.114.558.558,0,0,0-.114.179.511.511,0,0,0,0,.412.629.629,0,0,0,.114.179.622.622,0,0,0,.179.114.537.537,0,0,0,.592-.114.63.63,0,0,0,.114-.179.511.511,0,0,0,0-.412A.558.558,0,0,0,51.928,53.158Z" transform="translate(-23.316 -24.231)" fill="#a5a5a5"/>
      </g>
    </g>
  </g>
</svg>
