<svg xmlns="http://www.w3.org/2000/svg" width="41.22" height="36.244" viewBox="0 0 41.22 36.244">
  <g id="noun_renovation_1036899" transform="translate(-1.293 -5)">
    <path id="Path_5687" data-name="Path 5687" d="M18.027,36.492H34.136a.671.671,0,0,0,.671-.671V24.41h2.685a.671.671,0,0,0,.444-1.175l-3.8-3.353V15.014a.671.671,0,0,0-.671-.671H30.78a.671.671,0,0,0-.671.671V16.33l-3.583-3.162a.671.671,0,0,0-.887,0L14.228,23.236a.671.671,0,0,0,.444,1.175h2.685V35.82A.671.671,0,0,0,18.027,36.492ZM31.451,15.685h1.342V18.7l-1.342-1.185ZM24.068,35.149V32.465H25.41V31.122H24.068V28.437H28.1v6.712Zm9.4,0H29.437V27.766a.671.671,0,0,0-.671-.671H23.4a.671.671,0,0,0-.671.671v7.383H18.7V24.41H33.465ZM26.082,14.566l4.253,3.753h0l2.685,2.369h0l2.694,2.377H16.447Z" transform="translate(-4.178 -2.631)" fill="#a5a5a5"/>
    <path id="Path_5688" data-name="Path 5688" d="M40.1,31.2l-2.685,2.685.949.949,1.565-1.565A15,15,0,0,1,35.766,42.9a17.354,17.354,0,0,1-12.644,5.547c-10.087,0-16.78-8.888-16.78-14.766H5c0,6.568,7.06,16.109,18.122,16.109a18.7,18.7,0,0,0,13.626-5.974,16.323,16.323,0,0,0,4.52-10.5l1.514,1.514.949-.949L41.047,31.2A.67.67,0,0,0,40.1,31.2Z" transform="translate(-1.219 -8.549)" fill="#a5a5a5"/>
    <path id="Path_5689" data-name="Path 5689" d="M4.452,23.793a.669.669,0,0,0,.475-.2l2.685-2.685-.949-.949L5.3,21.33C6.5,11.907,12.6,6.342,21.9,6.342c11.788,0,16.78,10.563,16.78,14.766h1.342C40.025,16.524,34.635,5,21.9,5,11.847,5,5.064,11.333,3.911,21.631L2.242,19.963l-.949.949L3.978,23.6A.669.669,0,0,0,4.452,23.793Z" fill="#a5a5a5"/>
  </g>
</svg>
