<svg xmlns="http://www.w3.org/2000/svg" width="51.363" height="29.986" viewBox="0 0 51.363 29.986">
  <g id="noun_Air_Conditioner_3808348" data-name="noun_Air Conditioner_3808348" transform="translate(-25 -121.14)">
    <path id="Path_5732" data-name="Path 5732" d="M203.5,216.88h-.111a.963.963,0,0,0,0,1.926h.111a.963.963,0,1,0,0-1.926Z" transform="translate(-157.704 -85.096)" fill="#a5a5a5"/>
    <path id="Path_5733" data-name="Path 5733" d="M246.964,216.88h-.111a.963.963,0,1,0,0,1.926h.111a.963.963,0,1,0,0-1.926Z" transform="translate(-196.333 -85.096)" fill="#a5a5a5"/>
    <path id="Path_5734" data-name="Path 5734" d="M292.274,216.88h-.111a.963.963,0,1,0,0,1.926h.111a.963.963,0,1,0,0-1.926Z" transform="translate(-236.605 -85.096)" fill="#a5a5a5"/>
    <path id="Path_5735" data-name="Path 5735" d="M72.652,121.14H28.711A3.714,3.714,0,0,0,25,124.85v12a3.714,3.714,0,0,0,3.711,3.71H72.652a3.714,3.714,0,0,0,3.711-3.71v-12A3.714,3.714,0,0,0,72.652,121.14Zm-35.02,17.491v-1.2a1.017,1.017,0,0,1,1.016-1.016H62.719a1.017,1.017,0,0,1,1.016,1.016v1.2Zm36.809-1.779a1.785,1.785,0,0,1-1.779,1.779h-7v-1.2a2.946,2.946,0,0,0-2.943-2.943H38.643a2.946,2.946,0,0,0-2.943,2.943v1.2h-6.99a1.785,1.785,0,0,1-1.779-1.779v-12a1.785,1.785,0,0,1,1.779-1.779H72.652a1.785,1.785,0,0,1,1.779,1.779Z" transform="translate(0 0)" fill="#a5a5a5"/>
    <path id="Path_5736" data-name="Path 5736" d="M118.834,148.53H81.813a.963.963,0,0,0,0,1.926h37.021a.963.963,0,0,0,0-1.926Z" transform="translate(-49.641 -24.345)" fill="#a5a5a5"/>
    <path id="Path_5737" data-name="Path 5737" d="M118.834,182.7H81.813a.963.963,0,0,0,0,1.926h37.021a.963.963,0,0,0,0-1.926Z" transform="translate(-49.641 -54.716)" fill="#a5a5a5"/>
    <path id="Path_5738" data-name="Path 5738" d="M279.832,308.13a7.226,7.226,0,0,1-7.226-7.217.963.963,0,0,0-1.926,0,9.155,9.155,0,0,0,9.152,9.144.963.963,0,1,0,0-1.926Z" transform="translate(-218.367 -158.931)" fill="#a5a5a5"/>
    <path id="Path_5739" data-name="Path 5739" d="M344.8,305.447a4.548,4.548,0,0,1-4.544-4.544.963.963,0,1,0-1.926,0,6.477,6.477,0,0,0,6.469,6.469.963.963,0,0,0,0-1.926Z" transform="translate(-278.496 -158.922)" fill="#a5a5a5"/>
    <path id="Path_5740" data-name="Path 5740" d="M161.479,299.94a.963.963,0,0,0-.963.963,7.226,7.226,0,0,1-7.213,7.219.963.963,0,1,0,0,1.926,9.155,9.155,0,0,0,9.144-9.144.963.963,0,0,0-.968-.963Z" transform="translate(-113.183 -158.922)" fill="#a5a5a5"/>
    <path id="Path_5741" data-name="Path 5741" d="M116.172,300.913a.963.963,0,0,0-1.926,0,4.548,4.548,0,0,1-4.544,4.544.963.963,0,1,0,0,1.926A6.477,6.477,0,0,0,116.172,300.913Z" transform="translate(-74.43 -158.931)" fill="#a5a5a5"/>
  </g>
</svg>
