<svg xmlns="http://www.w3.org/2000/svg" width="42" height="42" viewBox="0 0 42 42">
  <g id="paint" transform="translate(0.048 0.048)">
    <rect id="Rectangle_19" data-name="Rectangle 19" width="42" height="42" transform="translate(-0.048 -0.048)" fill="#a5a5a5" opacity="0"/>
    <g id="paint-palette" transform="translate(2.328 3.492)">
      <path id="Path_33" data-name="Path 33" d="M317.037,131.238a.727.727,0,1,0,1.013.179A.728.728,0,0,0,317.037,131.238Zm0,0" transform="translate(-293.685 -121.568)" fill="#a5a5a5"/>
      <path id="Path_34" data-name="Path 34" d="M352.858,61.7l-4.388,3.392a.727.727,0,0,0,.89,1.151l4.387-3.391a.727.727,0,1,0-.89-1.151Zm0,0" transform="translate(-322.857 -57.07)" fill="#a5a5a5"/>
      <path id="Path_35" data-name="Path 35" d="M35.519,4.762C37.125,2.782,37.6,1.464,37,.614,36.359-.3,34.878-.2,32.2.956A50.974,50.974,0,0,0,25.243,4.8C19.206.71,12.354-.174,7.257,2.506,2.5,5.009-.079,10.192,0,17.1a18.293,18.293,0,0,0,2.582,9.662c1.449,2.3,3.348,3.8,5.21,4.115a3.443,3.443,0,0,0,3.991-2.441c.565-1.566.166-3.617,2.313-4.471a2.507,2.507,0,0,1,3.231,1.428c1.876,4.091,2.63,7.839,7.161,9.431a7.842,7.842,0,0,0,9.717-3.118c3.349-5.065,3.019-14.584-3.536-22.154a37.706,37.706,0,0,0,4.848-4.789ZM32.994,30.9c-1.856,2.807-4.7,3.712-8.021,2.547-3.846-1.351-4.48-4.651-6.321-8.665a3.972,3.972,0,0,0-5.091-2.173c-2.976,1.184-2.67,4.016-3.144,5.33a2.007,2.007,0,0,1-2.38,1.5c-2.6-.438-6.488-4.67-6.579-12.359C1.382,10.749,3.682,6.029,7.934,3.794,12.414,1.438,18.46,2.168,23.92,5.669c-.382.257-.763.518-1.139.782a54.234,54.234,0,0,0-4.594,3.58l0,0,0,0a27.272,27.272,0,0,0-3.654,3.759,3.638,3.638,0,0,0-4.3,1.956l-.782,1.678A3.639,3.639,0,1,0,11.687,21.1l2.162-.189a3.635,3.635,0,0,0,3.3-3.234,26.441,26.441,0,0,0,4.713-2.09.709.709,0,0,0,.317-.174,54.276,54.276,0,0,0,4.779-3c.877-.614,1.746-1.264,2.591-1.937,6.032,6.954,6.524,15.778,3.449,20.43ZM17,16.2a3.621,3.621,0,0,0-1.161-1.718,24.758,24.758,0,0,1,2.7-2.811L20.6,14.614A25.02,25.02,0,0,1,17,16.2ZM8.167,21.044a.727.727,0,0,0,.6.31c.021,0,.042,0,.064,0l1.376-.12A2.184,2.184,0,1,1,8.835,18.75L8.1,20.32a.726.726,0,0,0,.063.724Zm1.787-1.252,1.6-3.428a2.183,2.183,0,1,1,2.171,3.1Zm16.165-8.574c-1.433,1-2.855,1.907-4.236,2.693L19.636,10.7c1.214-1.032,2.55-2.06,3.98-3.061a59.476,59.476,0,0,1,8.766-5.176c2.366-1.069,3.2-1.034,3.409-.992a6.294,6.294,0,0,1-1.625,2.64,44.884,44.884,0,0,1-8.048,7.1Zm0,0" transform="translate(-0.001 0.001)" fill="#a5a5a5"/>
      <path id="Path_36" data-name="Path 36" d="M324.466,325.793a3.638,3.638,0,1,0,3.638,3.638A3.642,3.642,0,0,0,324.466,325.793Zm0,5.82a2.182,2.182,0,1,1,2.183-2.182A2.185,2.185,0,0,1,324.466,331.613Zm0,0" transform="translate(-297.488 -302.091)" fill="#a5a5a5"/>
      <path id="Path_37" data-name="Path 37" d="M344.466,205.8a3.637,3.637,0,1,0,3.638,3.638A3.642,3.642,0,0,0,344.466,205.8Zm0,5.82a2.183,2.183,0,1,1,2.183-2.183A2.185,2.185,0,0,1,344.466,211.617Zm0,0" transform="translate(-316.033 -190.825)" fill="#a5a5a5"/>
      <path id="Path_38" data-name="Path 38" d="M94.47,83.072a3.638,3.638,0,1,0-3.638-3.638A3.642,3.642,0,0,0,94.47,83.072Zm0-5.82a2.183,2.183,0,1,1-2.183,2.183A2.185,2.185,0,0,1,94.47,77.252Zm0,0" transform="translate(-84.224 -70.283)" fill="#a5a5a5"/>
    </g>
  </g>
</svg>
